# xmcd
#
# Track frame offsets: 
#        150
#        16089
#        33906
#        46611
#        66820
#        82777
#        97956
#        112055
#        121557
#        136269
#        158851
#        170734
#
# Disc length: 2449 seconds
#
# Revision: 1
# Processed by: cddbd v1.5.2PL0 Copyright (c) Steve Scherf et al.
# Submitted via: ExactAudioCopy v0.99pb3
#
DISCID=85098f0c
DTITLE=Roger Knox And Ahe Pine Valley Cosmonauts - Stranger In My Land
DYEAR=2012
DGENRE=Country
TTITLE0=The Land Where The Crow Flies Backwards
TTITLE1=Stranger In My Country
TTITLE2=Blue Gums Calling Me Back Home
TTITLE3=Took The Children Away
TTITLE4=Arafura Pearl
TTITLE5=Brisbane Blacks
TTITLE6=Wayward Dreams
TTITLE7=Scobie's Dream
TTITLE8=Ticket To Nowhere
TTITLE9=Warrior In Chains
TTITLE10=Streets Of Tamworth
TTITLE11=Home In The Valley
EXTD=
EXTT0=
EXTT1=
EXTT2=
EXTT3=
EXTT4=
EXTT5=
EXTT6=
EXTT7=
EXTT8=
EXTT9=
EXTT10=
EXTT11=
PLAYORDER=
